<svg width="50" height="50" viewBox="0 0 50 50" fill="none" xmlns="http://www.w3.org/2000/svg">
<rect width="50" height="50" fill="#CBDBF0"/>
<path d="M27.4 25.45C24.1667 25.45 22.5833 24.6333 22.65 23C22.65 21.4667 24.2 20.7 27.3 20.7C28.0333 20.7 28.7333 20.7833 29.4 20.95C30.5 19.85 31.05 18.1833 31.05 15.95C31.05 12.0833 28.4667 10.15 23.3 10.15C20.6 10.15 18.0333 10.7333 15.6 11.9C14.7 12.3333 13.8833 12.7333 13.15 13.1C12.45 13.4667 11.8 13.65 11.2 13.65C10.6 13.65 10.3 13.4667 10.3 13.1C10.3 12.6667 10.6333 12.0333 11.3 11.2C11.9667 10.3333 12.9 9.46666 14.1 8.6C17.1667 6.46667 20.65 5.38333 24.55 5.35C29.65 5.35 33.4 6.36667 35.8 8.4C37.8667 10.1 38.9 12.4167 38.9 15.35C38.9 18.75 37.2333 21.35 33.9 23.15C37.1 24.9833 39 27.2333 39.6 29.9C39.8 30.8333 39.9 32.0667 39.9 33.6C39.9 35.1333 39.4833 36.5833 38.65 37.95C37.8167 39.3167 36.7 40.4667 35.3 41.4C32.5 43.2 28.9167 44.1 24.55 44.1C21.45 44.1 18 43.4 14.2 42C11.6667 41.0667 9.8 39.95 8.6 38.65C8 38.0167 7.7 37.3833 7.7 36.75C7.73333 36.1167 8.05 35.8 8.65 35.8C9.28333 35.8 10.4667 36.0167 12.2 36.45V36.4C12.2 33.8 12.5 31.1333 13.1 28.4C14.1333 23.6333 15.3333 19.9 16.7 17.2C18.1667 14.2 19.6833 12.7 21.25 12.7C21.6833 12.7 21.9 13.45 21.9 14.95C21.9 16.45 21.75 17.9833 21.45 19.55C21.1833 21.1167 20.8833 22.6667 20.55 24.2C20.25 25.7 19.95 27.0667 19.65 28.3C19.3833 29.5333 19.25 30.4167 19.25 30.95L18.75 38.5C20.7167 39.0333 22.3833 39.3 23.75 39.3C25.1167 39.3 26.35 39.0667 27.45 38.6C30.2167 37.4333 31.6 35.4 31.6 32.5C31.6 30.7667 31.4333 29.3333 31.1 28.2C30.7667 27.0667 30.1667 26.0667 29.3 25.2C28.5333 25.3667 27.9 25.45 27.4 25.45Z" fill="#0088FF"/>
</svg>
